<svg xmlns="http://www.w3.org/2000/svg" xmlns:xlink="http://www.w3.org/1999/xlink" version="1.1" x="0px" y="0px" viewBox="0 0 100 125" enable-background="new 0 0 100 100" xml:space="preserve"><path d="M86.802,15.3c-1.401-1.613-3.348-2.583-5.479-2.732c-4.432-0.306-8.234,3.061-8.54,7.421l-2.49,35.57  c-0.148,2.131,0.541,4.193,1.943,5.806c0.694,0.8,1.523,1.44,2.442,1.902h-7.4c0.09-0.724,0.053-1.465-0.129-2.193  c-0.387-1.556-1.356-2.867-2.729-3.693l-6.871-4.136v-7.816c3.224-0.629,6.123-2.152,8.453-4.291  c0.074-0.049,0.135-0.108,0.192-0.175c3.354-3.169,5.465-7.636,5.495-12.596v0c0.001-0.037,0.006-0.071,0.006-0.108  c0-4.577-1.78-8.735-4.667-11.857c-0.041-0.064-0.097-0.115-0.152-0.168c-3.191-3.363-7.689-5.475-12.681-5.475  c-9.649,0-17.5,7.85-17.5,17.5c0,0.013,0.002,0.026,0.002,0.039c0,0.004,0,0.009,0,0.013c0.015,4.976,2.125,9.458,5.484,12.639  c0.063,0.075,0.132,0.14,0.213,0.193c2.329,2.136,5.226,3.657,8.446,4.285v4.132c-0.443-0.104-0.895-0.168-1.353-0.168  c-1.303,0-2.558,0.432-3.581,1.189l-4.328-6.971l-3.837,6.274l-5.333-28.558l-3.475,4.575l-5.261-1.874l-3.053,3.464l-5.595-1.858  l-2.578,3.262l-4.961-2.802l10.65,57.036l4.676-4.734l4.763,2.472L29.456,77l4.764,1.884l1.768-3.228l6.861,1.574l-3.791-20.302  l2.609,0.202c-0.299,1.011-0.331,2.086-0.07,3.137c0.387,1.555,1.356,2.866,2.73,3.692l3.368,2.027c0,0,0,0,0,0h0l3.145,1.894V84.07  c0,1.85,1.505,3.354,3.354,3.354c1.849,0,3.354-1.505,3.354-3.354V71.69c0.554,0.166,1.128,0.258,1.71,0.258c0,0,0,0,0.001,0  c1.488,0,2.907-0.57,3.995-1.539l2.842,6.767l8.434-11.733l-1.24,17.713c-0.119,1.695,1.164,3.171,2.86,3.29  c1.695,0.118,3.172-1.164,3.291-2.859l1.394-19.899c0.414-0.142,0.815-0.313,1.197-0.518c0.023-0.01,0.044-0.025,0.066-0.038  c2.318-1.271,3.96-3.657,4.155-6.455l2.49-35.569C88.894,18.975,88.203,16.913,86.802,15.3z M72.893,47.054l0.358-5.118  l11.246,9.688c0.03,0.026,0.067,0.037,0.101,0.06l-0.317,4.532L72.893,47.054z M73.781,34.354l11.148,9.267  c0.068,0.057,0.146,0.091,0.224,0.127L84.77,49.22l-11.345-9.774L73.781,34.354z M73.953,31.896l0.395-5.626l11.293,10.516  l-0.319,4.56L73.953,31.896z M74.527,23.703l0.25-3.575c0.049-0.699,0.224-1.361,0.492-1.972l10.909,10.941L85.82,34.22  L74.527,23.703z M85.292,16.612c0.801,0.92,1.289,2.037,1.428,3.223l-5.191-5.231C82.991,14.79,84.318,15.491,85.292,16.612z   M78.94,14.836l7.694,7.752l-0.271,3.863l-9.971-10C77.086,15.713,77.96,15.151,78.94,14.836z M73.745,60.053  c-0.905-1.041-1.411-2.332-1.465-3.689l7.315,5.606c-0.558,0.126-1.142,0.176-1.742,0.132C76.256,61.99,74.796,61.263,73.745,60.053  z M49.538,64.763l5.917-10.444l4.505,2.712l-5.948,10.426L49.538,64.763z M43.884,39.799c-0.627-5.532,5.282-8.622,8.525-9.886  c-1.179,3.209-2.705,9.391,0.8,13.794C49.637,43.482,46.397,42.046,43.884,39.799z M42.088,18.604c7.568-0.208,10,4.95,10.765,7.841  c-3.049-1.403-9.231-3.529-13.968-0.495C39.299,23.2,40.426,20.685,42.088,18.604z M66.725,19.172  c1.812,2.49,2.901,5.531,2.957,8.826c-0.961,1.61-2.228,2.577-3.873,2.935c-2.896,0.632-6.298-0.757-8.548-1.963  C60.364,28.282,64.881,26.062,66.725,19.172z M56.685,27.084c1.175-1.508,2.457-3.8,2.387-6.569  c-0.067-2.719-1.436-5.303-4.03-7.713c3.918,0.213,7.457,1.87,10.073,4.47C63.735,24.489,59.436,26.532,56.685,27.084z   M57.072,20.551c0.064,2.39-1.215,4.41-2.246,5.641c-0.805-3.131-3.325-8.893-10.885-9.528c2.233-1.977,5.034-3.316,8.129-3.743  C55.309,15.35,57,17.914,57.072,20.551z M51.57,28.077c-3.295,1.283-8.895,4.236-9.65,9.609c-1.937-2.515-3.117-5.633-3.205-9.024  C42.468,24.949,48.421,26.723,51.57,28.077z M54.067,31.193c1.216,3.167,3.9,8.14,9.085,9.691c-2.076,1.477-4.525,2.458-7.182,2.763  C51.83,40.252,52.951,34.478,54.067,31.193z M65.093,39.264c-5.173-0.739-7.895-5.63-9.108-8.708  c2.069,1.147,5.203,2.533,8.301,2.533c0.653,0,1.305-0.062,1.943-0.2c1.183-0.257,2.231-0.758,3.145-1.49  C68.745,34.44,67.221,37.157,65.093,39.264z M54.194,45.758c0.411,0,0.814-0.034,1.219-0.062c0.044,0.016,0.089,0.021,0.135,0.031  v6.314l-2.708-1.63v-4.721C53.288,45.724,53.737,45.758,54.194,45.758z M12.954,31.478l2.771-3.505l5.52,1.833l3.033-3.44  l5.364,1.91l1.629-2.146l1.231,6.593l-5.68,1.061l-0.584-3.134c-0.101-0.543-0.62-0.905-1.166-0.8  c-0.543,0.101-0.901,0.623-0.8,1.166l0.584,3.135l-6.748,1.26l-0.626-2.762c-0.122-0.538-0.656-0.876-1.196-0.754  c-0.539,0.122-0.876,0.658-0.754,1.196l0.609,2.687l-4.65,0.868l-1.251-6.702L12.954,31.478z M34.96,73.369l-1.646,3.005  l-4.845-1.915l-1.794,3.687l-4.249-2.204L19.4,79.004l-1.645-8.811l3.661-0.685l0.608,2.71C22.129,72.685,22.542,73,22.999,73  c0.073,0,0.146-0.008,0.22-0.024c0.539-0.121,0.877-0.656,0.756-1.194l-0.593-2.64l8.928-1.667l0.365,3.06  c0.061,0.509,0.493,0.882,0.992,0.882c0.04,0,0.08-0.002,0.12-0.007c0.549-0.065,0.94-0.563,0.875-1.111l-0.38-3.191l4.484-0.838  l1.556,8.331L34.96,73.369z M38.399,64.302l-21.012,3.925l-5.529-29.614l21.011-3.923l3.313,17.744l-2.06,3.367  c-0.015-0.118-0.026-0.236-0.048-0.354l-1.789-9.585c-0.53-2.839-3.008-4.899-5.892-4.899c-0.369,0-0.742,0.035-1.107,0.103  l-4.055,0.757c-1.575,0.294-2.942,1.184-3.848,2.505c-0.906,1.322-1.244,2.918-0.949,4.494l1.79,9.585  c0.53,2.839,3.008,4.899,5.892,4.899c0,0,0,0,0,0c0.369,0,0.741-0.035,1.107-0.103l4.055-0.758c1.576-0.295,2.942-1.185,3.848-2.507  c0.694-1.013,1.051-2.187,1.049-3.388l2.817,0.218L38.399,64.302z M31.477,58.809c-0.604,0.881-1.515,1.475-2.565,1.67l-4.055,0.758  c-0.245,0.046-0.494,0.069-0.74,0.069c0,0,0,0,0,0c-1.921,0-3.573-1.374-3.926-3.267l-1.79-9.585  c-0.196-1.05,0.029-2.114,0.633-2.996s1.515-1.474,2.566-1.67l4.055-0.757c0.245-0.045,0.494-0.069,0.74-0.069  c1.921,0,3.573,1.374,3.926,3.267l1.789,9.585C32.305,56.863,32.081,57.927,31.477,58.809z M42.596,55.196l-5.499-0.426l4.494-7.348  l2.896,4.664c-0.047,0.072-0.103,0.138-0.147,0.212L42.596,55.196z M43.537,59.784c-0.258-1.036-0.097-2.111,0.455-3.027  l2.062-3.427c0.731-1.214,2.015-1.938,3.433-1.938c0.723,0,1.434,0.198,2.057,0.573l2.196,1.322L47.824,63.73l-2.466-1.484  C44.441,61.695,43.795,60.821,43.537,59.784z M54.194,85.425c-0.747,0-1.354-0.607-1.354-1.354V69.084l2.708,1.63V84.07  C55.548,84.817,54.94,85.425,54.194,85.425z M59.259,69.948L59.259,69.948c-0.724,0-1.436-0.198-2.059-0.573l-1.476-0.888  l5.949-10.427l1.714,1.032c0.916,0.552,1.562,1.426,1.819,2.463c0.258,1.036,0.097,2.111-0.454,3.027L62.69,68.01  C61.96,69.224,60.677,69.948,59.259,69.948z M66.557,73.107l-1.892-4.502l1.801-2.991c0.068-0.113,0.127-0.231,0.187-0.348h5.54  L66.557,73.107z M77.445,83.446c-0.042,0.595-0.561,1.045-1.156,1.004c-0.596-0.042-1.047-0.561-1.005-1.155l1.354-19.354  c0.353,0.072,0.71,0.131,1.075,0.156c0.19,0.014,0.38,0.021,0.567,0.021c0.175,0,0.347-0.014,0.52-0.025L77.445,83.446z   M81.682,61.047l-9.271-7.104l0.313-4.459l11.089,8.922C83.365,59.479,82.62,60.395,81.682,61.047z"/><text x="0" y="115" fill="#000000" font-size="5px" font-weight="bold" font-family="'Helvetica Neue', Helvetica, Arial-Unicode, Arial, Sans-serif">Created by Creative Mania</text><text x="0" y="120" fill="#000000" font-size="5px" font-weight="bold" font-family="'Helvetica Neue', Helvetica, Arial-Unicode, Arial, Sans-serif">from the Noun Project</text></svg>