<svg xmlns="http://www.w3.org/2000/svg" xmlns:xlink="http://www.w3.org/1999/xlink" version="1.1" x="0px" y="0px" viewBox="0 0 100 125" enable-background="new 0 0 100 100" xml:space="preserve"><path d="M39.085,79.73c0.032,0.551-0.389,1.023-0.94,1.056c-0.69,0.04-1.384,0.061-2.077,0.061c-2.871,0-5.754-0.344-8.597-1.026  c-3.53-0.85-6.878-2.193-9.953-3.994c-0.477-0.279-0.636-0.893-0.357-1.369c0.279-0.477,0.891-0.637,1.369-0.357  c2.904,1.702,6.07,2.973,9.409,3.775s6.732,1.11,10.091,0.915C38.587,78.765,39.054,79.179,39.085,79.73z M20.198,71.765  c0.078,0.019,0.157,0.027,0.234,0.027c0.451,0,0.861-0.308,0.972-0.767l5.202-21.639c0.129-0.537-0.202-1.076-0.739-1.206  c-0.536-0.13-1.077,0.201-1.206,0.739l-5.202,21.639C19.33,71.096,19.661,71.635,20.198,71.765z M82.483,74.1  c-2.904,1.702-6.07,2.973-9.408,3.775s-6.728,1.111-10.092,0.915c-0.56-0.028-1.024,0.389-1.056,0.94  c-0.032,0.551,0.389,1.023,0.94,1.056c0.691,0.04,1.384,0.061,2.078,0.061c2.871,0,5.754-0.344,8.597-1.026  c3.529-0.85,6.877-2.193,9.952-3.994c0.477-0.279,0.636-0.893,0.357-1.369C83.572,73.98,82.961,73.82,82.483,74.1z M91.621,69.365  c-0.032,0.022-0.065,0.042-0.101,0.061l-4.29,2.248c0.164,0.337,0.323,0.677,0.501,1.008l3.361,6.217  c0.322,0.597,0.421,1.328,0.142,1.948c-0.277,0.617-0.887,1.025-1.545,1.18l-29.534,7.103c-0.169,0.041-1.301,0.288-2.03-0.316  c-0.522-0.433-0.65-1.158-0.635-1.835l0.169-7.067c0.052-2.417-0.206-4.829-0.767-7.165l-3.926-16.321  c-0.747,0.681-1.741,1.06-2.85,1.06c-0.268,0-0.542-0.021-0.819-0.064c-0.475-0.074-0.936-0.242-1.387-0.451l-3.79,15.777  c-0.563,2.343-0.819,4.753-0.761,7.164l0.162,7.069c0.017,0.675-0.146,1.412-0.739,1.881c-0.393,0.31-1.297,0.484-1.928,0.269  l-29.537-7.103c-0.653-0.154-1.367-0.486-1.645-1.104c-0.277-0.619-0.075-1.428,0.246-2.022l3.362-6.22  c0.178-0.33,0.338-0.669,0.503-1.005l-4.291-2.249c-0.035-0.019-0.068-0.038-0.101-0.061c-3.589-2.453-4.884-7.102-3.08-11.054  l4.411-11.283c0.894-2.279,3.323-3.5,5.772-2.915l4.36,1.048l1.547-6.435c-0.228-1.003-0.627-3.854,1.621-5.742  c2.985-2.51,5.681-1.801,7.271-0.676c1.337-1.924,3.622-4.056,7.317-4.39c4.227-0.379,7.58,2.568,8.657,3.653  c1.092-0.047,3.468,0.188,5.069,2.64c0.086,0.133,0.128,0.278,0.146,0.425c1.167-0.241,2.231-0.324,2.83-0.385  c0.76-1.037,2.94-3.251,6.68-3.251c0.026,0,0.053,0,0.079,0c2.715,0,4.656,0.943,5.977,2.153c1.762-1.336,5.133-2.507,8.589,0.356  c1.991,1.651,2.07,4.015,1.964,5.188l1.555,6.464l4.361-1.048c2.445-0.585,4.878,0.637,5.771,2.914l4.434,11.335  C96.505,62.264,95.21,66.912,91.621,69.365z M85.333,66.581l3.368-1.703c1.409-1.002,1.901-2.851,1.169-4.422l-0.062-0.15  l-4.389-11.259l-4.09,0.983l3.831,15.919C85.21,66.162,85.277,66.37,85.333,66.581z M24.403,38.484  c0.026,0.083,0.023,0.166,0.027,0.249c0.367,0.781,1.996,3.504,6.804,3.391c0.379,0.007,0.687,0.175,0.872,0.479  c1.969,3.217,7.271,6.84,10.708,5.599c-0.331-4.623,1.848-9.044,6.097-12.139c0.502-0.365,1.072-0.652,1.663-0.88  c-1.373-1.956-3.498-1.595-3.519-1.591c-0.348,0.061-0.703-0.062-0.936-0.327c-0.032-0.037-3.289-3.731-7.328-3.355  c-3.462,0.313-5.403,2.642-6.376,4.353c-0.011,0.024-0.025,0.046-0.038,0.069c-0.525,0.94-0.76,1.681-0.784,1.763  c-0.13,0.434-0.528,0.715-0.959,0.715c-0.094,0-0.189-0.014-0.284-0.042c-0.528-0.156-0.831-0.71-0.675-1.239  c0.023-0.08,0.209-0.671,0.601-1.482c-0.822-0.639-2.618-1.505-4.965,0.468C23.617,35.938,24.396,38.459,24.403,38.484z   M19.685,50.03l-4.091-0.984l-4.433,11.368c-0.749,1.611-0.258,3.462,1.151,4.463l3.372,1.705c0.056-0.212,0.123-0.42,0.174-0.633  L19.685,50.03z M14.601,69.846c0.176-0.436,0.337-0.876,0.49-1.32l-3.745-1.894c-0.04-0.021-0.078-0.043-0.114-0.067  c-2.258-1.548-3.058-4.472-1.901-6.952l0.024-0.062l4.475-11.486c0.315-0.783,1.158-1.215,1.962-1.026l4.361,1.048l0.235-0.979  l-4.36-1.048c-1.475-0.358-2.919,0.361-3.443,1.699L8.153,59.091c-1.413,3.098-0.427,6.681,2.32,8.592L14.601,69.846z   M46.142,55.762c-1.362-1.271-2.45-3.153-2.991-5.383c-0.014-0.056-0.021-0.113-0.034-0.169c-0.599,0.175-1.218,0.268-1.851,0.268  c-3.967,0-8.386-3.18-10.555-6.353c-3.583-0.068-5.69-1.48-6.881-2.779l-6.026,25.071c-0.603,2.511-1.532,4.938-2.764,7.214  l-3.362,6.219c-0.03,0.056-0.019,0.107-0.003,0.141c0.015,0.033,0.045,0.075,0.105,0.089l29.542,7.104  c0.054,0.015,0.101,0.004,0.139-0.029c0.028-0.022,0.062-0.063,0.06-0.129l-0.162-7.069c-0.063-2.583,0.212-5.166,0.815-7.678  L46.142,55.762z M52.146,53c-0.09-0.458,0.203-0.966,0.633-1.131c0.027-0.01,2.817-1.09,3.045-3.142  c0.057-0.507,0.484-0.89,0.994-0.89c0.222,0,0.468,0.009,0.733,0.017c2.359,0.086,5.037,0.181,5.452-4.321  c0.028-0.302,0.191-0.575,0.444-0.742c0.254-0.167,0.565-0.212,0.857-0.118c4.46,1.431,7.348,0.339,8.827-3.335  c0.111-0.276,0.407-0.53,0.693-0.599c0.01-0.002,2.809-0.675,2.809-0.675c0.006-0.848-0.193-2.119-1.273-3.015  c-2.709-2.244-5.036-1.072-6.019-0.359c0.509,0.788,0.822,1.574,0.965,2.214c0.121,0.539-0.175,1.101-0.714,1.221  c-0.541,0.121-1.115-0.182-1.237-0.719C68.313,37.215,67.227,33,62.072,33c-0.021,0-0.043,0-0.065,0  c-3.485,0-5.198,2.593-5.27,2.713c-0.17,0.285-0.473,0.347-0.804,0.366c-0.038,0.003-3.809,0.181-5.845,1.664  c-4.235,3.085-6.103,7.624-4.994,12.195c0.705,2.911,2.602,5.224,4.509,5.52c0.867,0.136,1.637-0.078,2.108-0.569  C52.148,54.436,52.299,53.78,52.146,53z M85.971,73.631c-1.229-2.285-2.156-4.712-2.757-7.214l-6.341-26.354l-2.094,0.504  c-1.336,2.934-4.125,5.774-9.952,4.331c-1.009,5.072-5.076,5.032-7.214,4.959c-0.61,1.84-2.302,2.97-3.325,3.507l4.55,18.913  c0.601,2.503,0.877,5.086,0.821,7.677l-0.169,7.069c-0.002,0.064,0.032,0.106,0.062,0.129c0.038,0.032,0.082,0.042,0.133,0.031  l29.543-7.104c0.055-0.013,0.09-0.042,0.11-0.088c0.016-0.033,0.026-0.085-0.005-0.143L85.971,73.631z M92.881,59.142l-4.454-11.385  c-0.523-1.338-1.972-2.058-3.442-1.698l-4.359,1.048l0.236,0.979l4.36-1.048c0.805-0.191,1.646,0.243,1.958,1.016l4.523,11.606  c1.137,2.432,0.337,5.355-1.922,6.904c-0.036,0.024-0.074,0.047-0.114,0.067l-3.741,1.892c0.153,0.444,0.314,0.885,0.49,1.321  l4.124-2.161C93.286,65.771,94.272,62.189,92.881,59.142z M77.728,62.239c0.11,0.459,0.521,0.767,0.972,0.767  c0.077,0,0.156-0.009,0.234-0.027c0.537-0.13,0.868-0.669,0.739-1.206l-3.369-14.015c-0.129-0.537-0.669-0.864-1.206-0.739  c-0.537,0.13-0.868,0.669-0.739,1.206L77.728,62.239z M78.858,66.94l1.175,4.438c0.119,0.448,0.523,0.744,0.966,0.744  c0.085,0,0.171-0.011,0.257-0.033c0.534-0.142,0.853-0.688,0.711-1.223l-1.175-4.438c-0.142-0.535-0.69-0.85-1.223-0.711  C79.035,65.859,78.717,66.406,78.858,66.94z M50,25c0.553,0,1-0.447,1-1V11c0-0.553-0.447-1-1-1s-1,0.447-1,1v13  C49,24.553,49.447,25,50,25z M39.052,24.316C39.191,24.735,39.581,25,40,25c0.104,0,0.211-0.017,0.316-0.052  c0.523-0.174,0.807-0.74,0.632-1.265l-3-9c-0.175-0.523-0.736-0.809-1.265-0.632c-0.523,0.174-0.807,0.74-0.632,1.265L39.052,24.316  z M59.684,24.948C59.789,24.983,59.896,25,60,25c0.419,0,0.809-0.265,0.948-0.684l3-9c0.175-0.524-0.108-1.091-0.632-1.265  c-0.529-0.177-1.09,0.108-1.265,0.632l-3,9C58.877,24.208,59.16,24.774,59.684,24.948z M69.154,27c0.273,0,0.547-0.112,0.744-0.332  l4.513-5.031c0.369-0.411,0.335-1.044-0.076-1.412c-0.41-0.368-1.043-0.334-1.412,0.076l-4.513,5.031  c-0.369,0.411-0.335,1.044,0.076,1.412C68.678,26.916,68.916,27,69.154,27z M29.923,26.668C30.12,26.888,30.394,27,30.667,27  c0.238,0,0.477-0.084,0.668-0.256c0.411-0.368,0.445-1.001,0.076-1.412l-4.513-5.031c-0.37-0.411-1.001-0.445-1.412-0.076  c-0.411,0.368-0.445,1.001-0.076,1.412L29.923,26.668z M52.683,43.038c0.001-0.331,0.095-3.217,3.073-3.67  c0.546-0.083,0.921-0.598,0.838-1.144s-0.592-0.934-1.139-0.848c-3.805,0.578-4.785,3.958-4.772,5.675  c0.004,0.549,0.451,0.949,1,0.949c0.001,0,0.002,0,0.003,0C52.235,44,52.682,43.588,52.683,43.038z"/><text x="0" y="115" fill="#000000" font-size="5px" font-weight="bold" font-family="'Helvetica Neue', Helvetica, Arial-Unicode, Arial, Sans-serif">Created by  Laymik</text><text x="0" y="120" fill="#000000" font-size="5px" font-weight="bold" font-family="'Helvetica Neue', Helvetica, Arial-Unicode, Arial, Sans-serif">from the Noun Project</text></svg>