<svg xmlns="http://www.w3.org/2000/svg" xmlns:xlink="http://www.w3.org/1999/xlink" version="1.1" x="0px" y="0px" viewBox="0 0 164 205" enable-background="new 0 0 164 164" xml:space="preserve"><path fill-rule="evenodd" clip-rule="evenodd" d="M142.104,140.011c3.409-21.944,10.172-41.491,21.577-66.883  c-39.626,64.042-42.359,39.888-39.722-21.736C90.772,180.206,85.433,35.994,81.438,9.803c-3.918,26.012-5.751,170.398-41.716,41.359  c-1.318,62.9,3.765,86.24-39.722,21.737c11.599,25.392,18.072,45.131,21.481,67.075L142.104,140.011L142.104,140.011z   M142.009,145.721c0,2.933,0,5.863,0,8.796c-40.111,0-80.228,0-120.337,0c0-2.933,0-5.863,0-8.796  C61.781,145.721,101.897,145.721,142.009,145.721z"/><text x="0" y="179" fill="#000000" font-size="5px" font-weight="bold" font-family="'Helvetica Neue', Helvetica, Arial-Unicode, Arial, Sans-serif">Created by Aleksandr Vector</text><text x="0" y="184" fill="#000000" font-size="5px" font-weight="bold" font-family="'Helvetica Neue', Helvetica, Arial-Unicode, Arial, Sans-serif">from the Noun Project</text></svg>