<svg xmlns="http://www.w3.org/2000/svg" xmlns:xlink="http://www.w3.org/1999/xlink" version="1.1" x="0px" y="0px" viewBox="0 0 100 125" enable-background="new 0 0 100 100" xml:space="preserve"><path d="M39.635,21.057C39.707,21.547,40.128,22,40.624,22h3.065c0.496,0,0.917-0.453,0.989-0.943l1.113-7.582  c0.112-1.031-0.22-2.089-0.913-2.861c-0.692-0.772-1.685-1.227-2.722-1.227c-1.038,0-2.03,0.438-2.723,1.21  c-0.693,0.772-1.025,1.85-0.908,2.919L39.635,21.057z M45,24c0-0.552-0.448-1-1-1h-4c-0.552,0-1,0.448-1,1l0,0c0,0.552,0.448,1,1,1  h4C44.552,25,45,24.552,45,24L45,24z M81.581,94.337c-0.027-0.031-2.772-3.136-4.729-6.091c-0.817-1.234-1.223-2.731-1.144-4.188  l3.125-38.226c0-1.493,0.041-2.836,0.078-4.066c0.134-4.417,0.229-7.607-1.79-11.104c-4.19-7.256-14.75-5.825-16.121-5.603v-2.144  c1.881-1.018,2.75-5.023,2.75-8.787c0-4.354-1.16-9.04-3.708-9.04s-3.709,4.687-3.709,9.04c0,3.706,0.845,7.642,2.667,8.734v2.326  L51.236,26H38c-0.553,0-1,0.447-1,1c0,0.099,0,4.071,0,4.071C37,31.623,37.488,32,38.041,32h3.133l-2.927,11.821  c-0.127,0.503,0.153,1.094,0.644,1.263l1.868,0.678c0.762,0.217,1.283-0.137,1.532-0.628l5.355-11.786  c0.336-0.731,1.029-1.161,1.833-1.161L60.872,34c4.796,1,5.812,6.156,5.812,10.02l-0.168,38.458c-0.009,2.161-1.044,4.18-2.77,5.481  l-8.348,6.267c-0.344,0.259-0.483,0.696-0.347,1.104S55.57,96,56,96h24.833c0.394,0,0.751-0.23,0.912-0.59  S81.843,94.631,81.581,94.337z M58.333,14.128c0-4.568,1.247-6.919,1.696-7.041c0.474,0.123,1.721,2.475,1.721,7.041  c0,4.096-1,6.395-1.53,6.916c-0.137,0.12-0.284,0.073-0.361-0.016C59.305,20.463,58.333,18.165,58.333,14.128z M51,94H18  c-0.553,0-1,0.447-1,1s0.447,1,1,1h33c0.553,0,1-0.447,1-1S51.553,94,51,94z"/><text x="0" y="115" fill="#000000" font-size="5px" font-weight="bold" font-family="'Helvetica Neue', Helvetica, Arial-Unicode, Arial, Sans-serif">Created by  Laymik</text><text x="0" y="120" fill="#000000" font-size="5px" font-weight="bold" font-family="'Helvetica Neue', Helvetica, Arial-Unicode, Arial, Sans-serif">from the Noun Project</text></svg>